<svg xmlns="http://www.w3.org/2000/svg" viewBox="0 0 480 620" role="img" aria-labelledby="title desc">
  <title id="title">Tabung sampel air AquaSmart</title>
  <desc id="desc">Tabung akrilik berisi sampel air dengan partikel kekeruhan.</desc>
  <g fill="none" stroke-linecap="square">
    <ellipse cx="230" cy="90" rx="88" ry="25" fill="#4C9A8E" fill-opacity=".14" stroke="#D8E2DE" stroke-opacity=".72" stroke-width="3"/>
    <path d="M142 90v410c0 38 39 65 88 65s88-27 88-65V90" fill="#4C9A8E" fill-opacity=".20" stroke="#D8E2DE" stroke-opacity=".62" stroke-width="3"/>
    <ellipse cx="230" cy="500" rx="88" ry="25" fill="#4C9A8E" fill-opacity=".30" stroke="#D8E2DE" stroke-opacity=".62" stroke-width="3"/>
    <path d="M158 240v254c0 28 32 49 72 49s72-21 72-49V240" fill="#4C9A8E" fill-opacity=".42"/>
    <ellipse cx="230" cy="240" rx="72" ry="19" fill="#4C9A8E" fill-opacity=".55" stroke="#D8E2DE" stroke-opacity=".45"/>
    <path d="M154 150h23M154 202h23M154 254h23M154 306h23M154 358h23M154 410h23M154 462h23" stroke="#D8E2DE" stroke-opacity=".45" stroke-width="2"/>
  </g>
  <g fill="#B9834F" fill-opacity=".82">
    <circle cx="190" cy="292" r="3"/><circle cx="249" cy="314" r="4"/><circle cx="274" cy="356" r="2.5"/><circle cx="205" cy="382" r="4"/><circle cx="237" cy="423" r="3"/><circle cx="181" cy="446" r="2.5"/><circle cx="269" cy="468" r="4"/><circle cx="221" cy="497" r="3"/><circle cx="284" cy="274" r="2.5"/><circle cx="214" cy="337" r="2"/><circle cx="254" cy="397" r="2.5"/><circle cx="197" cy="514" r="3"/>
  </g>
</svg>
